<?xml version="1.0" encoding="utf-8"?>
<!-- Generator: Adobe Illustrator 22.1.0, SVG Export Plug-In . SVG Version: 6.00 Build 0)  -->
<svg fill="#7bcf99" version="1.1" id="Layer_1" xmlns="http://www.w3.org/2000/svg" xmlns:xlink="http://www.w3.org/1999/xlink" x="0px" y="0px"
	 viewBox="0 0 32 32" style="enable-background:new 0 0 32 32;" xml:space="preserve">
<title>svelte</title>
<path d="M27.6,4.2C24.6,0,18.9-1.2,14.5,1.4L7,6.2c-2,1.3-3.4,3.4-3.9,5.7c-0.4,2,0,4,0.9,5.8c-0.6,1-1.1,2.1-1.3,3.2
	c-0.4,2.4,0.1,4.9,1.5,6.9c2.9,4.2,8.6,5.5,13.1,2.8l7.5-4.8c2-1.3,3.4-3.4,3.8-5.7c0.4-2,0-4-0.9-5.8C29.8,11.2,29.7,7.2,27.6,4.2z
	 M13.8,28.2c-2.4,0.6-4.9-0.3-6.3-2.4c-0.9-1.2-1.2-2.7-0.9-4.1L6.6,21l0.1-0.4l0.4,0.3c0.9,0.7,1.9,1.1,2.9,1.5l0.3,0.1l0,0.3
	c0,0.4,0.1,0.8,0.3,1.1c0.4,0.6,1.2,0.9,1.9,0.7c0.2-0.1,0.3-0.1,0.5-0.2l7.4-4.7c0.4-0.2,0.6-0.6,0.7-1c0.1-0.4,0-0.9-0.3-1.3
	c-0.4-0.6-1.2-0.9-1.9-0.7c-0.2,0.1-0.3,0.1-0.5,0.2l-2.8,1.8c-2.7,1.6-6.1,0.8-7.9-1.7c-0.9-1.2-1.2-2.7-0.9-4.1
	C7.1,11.2,8,10,9.2,9.2l7.4-4.7c0.5-0.3,1-0.5,1.5-0.7c2.4-0.6,4.9,0.3,6.3,2.3c1,1.4,1.3,3.2,0.8,4.8l-0.1,0.4l-0.4-0.3
	c-0.9-0.7-1.9-1.1-2.9-1.5l-0.3-0.1l0-0.3c0-0.4-0.1-0.8-0.3-1.1c-0.4-0.6-1.2-0.9-1.9-0.7c-0.2,0.1-0.3,0.1-0.5,0.2l-7.5,4.8
	c-0.4,0.2-0.6,0.6-0.7,1c-0.1,0.4,0,0.9,0.3,1.2c0.4,0.6,1.2,0.9,1.9,0.7c0.2-0.1,0.3-0.1,0.5-0.2l2.8-1.8c0.5-0.3,1-0.5,1.5-0.7
	c2.4-0.6,4.9,0.3,6.3,2.4c0.9,1.2,1.2,2.7,1,4.1c-0.2,1.4-1.1,2.7-2.3,3.5l-7.4,4.7C14.8,27.8,14.3,28,13.8,28.2L13.8,28.2z"/>
</svg>
